<svg width="64" height="16" viewBox="0 0 64 16" fill="none" xmlns="http://www.w3.org/2000/svg">
<path d="M16.4642 12V3.48H20.1962C20.8202 3.48 21.3602 3.584 21.8162 3.792C22.2802 4 22.6362 4.296 22.8842 4.68C23.1322 5.056 23.2562 5.504 23.2562 6.024C23.2562 6.416 23.1722 6.764 23.0042 7.068C22.8442 7.372 22.6202 7.62 22.3322 7.812C22.0522 8.004 21.7282 8.124 21.3602 8.172L21.3242 8.064C21.8922 8.064 22.3242 8.188 22.6202 8.436C22.9162 8.676 23.0842 9.048 23.1242 9.552L23.3402 12H21.4802L21.3242 9.84C21.3002 9.512 21.1962 9.272 21.0122 9.12C20.8362 8.96 20.5322 8.88 20.1002 8.88H18.2882V12H16.4642ZM18.2882 7.356H19.9922C20.4322 7.356 20.7722 7.256 21.0122 7.056C21.2602 6.848 21.3842 6.556 21.3842 6.18C21.3842 5.796 21.2602 5.508 21.0122 5.316C20.7642 5.116 20.4042 5.016 19.9322 5.016H18.2882V7.356ZM27.4164 12.144C26.7604 12.144 26.1884 12.008 25.7004 11.736C25.2204 11.456 24.8444 11.064 24.5724 10.56C24.3084 10.056 24.1764 9.464 24.1764 8.784C24.1764 8.104 24.3084 7.516 24.5724 7.02C24.8444 6.516 25.2204 6.124 25.7004 5.844C26.1804 5.564 26.7484 5.424 27.4044 5.424C28.0444 5.424 28.6004 5.564 29.0724 5.844C29.5444 6.124 29.9084 6.524 30.1644 7.044C30.4284 7.564 30.5604 8.184 30.5604 8.904V9.264H26.0364C26.0604 9.776 26.1964 10.156 26.4444 10.404C26.7004 10.652 27.0364 10.776 27.4524 10.776C27.7564 10.776 28.0084 10.712 28.2084 10.584C28.4164 10.456 28.5644 10.26 28.6524 9.996L30.4644 10.104C30.2964 10.744 29.9404 11.244 29.3964 11.604C28.8524 11.964 28.1924 12.144 27.4164 12.144ZM26.0364 8.16H28.7124C28.6884 7.688 28.5564 7.336 28.3164 7.104C28.0844 6.872 27.7804 6.756 27.4044 6.756C27.0284 6.756 26.7164 6.88 26.4684 7.128C26.2284 7.368 26.0844 7.712 26.0364 8.16ZM33.4115 12C32.8835 12 32.4715 11.868 32.1755 11.604C31.8795 11.34 31.7315 10.912 31.7315 10.32V3.48H33.5315V10.128C33.5315 10.32 33.5755 10.456 33.6635 10.536C33.7515 10.616 33.8795 10.656 34.0475 10.656H34.4795V12H33.4115ZM37.3777 12.144C36.7137 12.144 36.1697 11.992 35.7457 11.688C35.3297 11.376 35.1217 10.944 35.1217 10.392C35.1217 9.824 35.2977 9.388 35.6497 9.084C36.0097 8.772 36.5377 8.544 37.2337 8.4L39.3097 7.992C39.3097 7.576 39.2137 7.264 39.0217 7.056C38.8377 6.84 38.5697 6.732 38.2177 6.732C37.8737 6.732 37.6057 6.812 37.4137 6.972C37.2217 7.124 37.0977 7.352 37.0417 7.656L35.2297 7.572C35.3497 6.868 35.6657 6.336 36.1777 5.976C36.6977 5.608 37.3777 5.424 38.2177 5.424C39.1777 5.424 39.8977 5.652 40.3777 6.108C40.8657 6.564 41.1097 7.232 41.1097 8.112V10.308C41.1097 10.492 41.1377 10.616 41.1937 10.68C41.2577 10.736 41.3497 10.764 41.4697 10.764H41.6497V12C41.5937 12.016 41.5017 12.032 41.3737 12.048C41.2537 12.064 41.1337 12.072 41.0137 12.072C40.7577 12.072 40.5177 12.028 40.2937 11.94C40.0777 11.852 39.9017 11.704 39.7657 11.496C39.6297 11.28 39.5617 10.976 39.5617 10.584L39.7177 10.704C39.6377 10.992 39.4937 11.244 39.2857 11.46C39.0857 11.676 38.8217 11.844 38.4937 11.964C38.1737 12.084 37.8017 12.144 37.3777 12.144ZM37.8097 10.908C38.1057 10.908 38.3657 10.852 38.5897 10.74C38.8137 10.62 38.9897 10.448 39.1177 10.224C39.2457 10 39.3097 9.736 39.3097 9.432V9.12L37.8457 9.432C37.5577 9.488 37.3377 9.584 37.1857 9.72C37.0417 9.848 36.9697 10.016 36.9697 10.224C36.9697 10.44 37.0417 10.608 37.1857 10.728C37.3297 10.848 37.5377 10.908 37.8097 10.908ZM42.7126 13.8V12.456H43.5646C43.7726 12.456 43.9246 12.424 44.0206 12.36C44.1246 12.304 44.2046 12.2 44.2606 12.048L44.3926 11.676H43.9006L41.6446 5.568H43.4806L44.9566 9.996L46.3366 5.568H48.1726L45.7006 12.612C45.5566 13.036 45.3486 13.34 45.0766 13.524C44.8046 13.708 44.4246 13.8 43.9366 13.8H42.7126Z" fill="white"/>
<path fill-rule="evenodd" clip-rule="evenodd" d="M10 2H15V6.85532C12.3747 6.5735 10.2902 4.54932 10 2ZM10 13C10.2902 10.4507 12.3747 8.4265 15 8.14468V13H10Z" fill="white"/>
<path d="M8.35164 2H7.64836H5V6.85532V8.14468V13H7.64836H8.35164C8.50536 10.4507 9.60946 8.42649 11 8.14468V6.85532C9.60946 6.5735 8.50536 4.54932 8.35164 2Z" fill="white"/>
</svg>
